<svg width="100" height="100" viewBox="0 0 100 100" fill="none" xmlns="http://www.w3.org/2000/svg">
<g id="fist_7467411 1">
<g id="Group">
<path id="Vector" d="M64.043 14.3555C70.3906 15.5078 74.5899 20.1562 74.6094 26.0156V27.3438H75.4297C78.0664 27.3633 81.543 28.8086 83.3985 30.6641C84.668 31.9336 85.7813 33.9648 86.1328 35.6836C86.2695 36.3477 86.3281 37.5781 86.2695 38.6719C86.1719 40.7812 85.7031 42.207 84.6485 43.75C83.8867 44.8633 83.8672 44.9609 84.3164 45.332C84.8242 45.7617 85.8399 47.4609 86.3281 48.7305C86.875 50.1562 86.9922 53.3984 86.543 54.9805C85.9375 57.168 84.4531 59.5508 82.8906 60.8984C82.0703 61.582 82.0313 61.6797 82.2266 62.1875C82.3242 62.4805 82.5195 63.3398 82.6367 64.082C83.3203 68.5547 80.5469 73.125 76.1328 74.8242C75.0781 75.2148 75.0195 75.2734 75.1563 75.7617C75.4297 76.7773 75.2735 79.1602 74.8242 80.4688C74.0235 82.8516 72.4024 84.4922 69.9414 85.3711C68.6914 85.8203 68.5156 85.8398 62.3047 85.8398C55.6055 85.8203 53.0274 85.6445 48.1445 84.8633C36.875 83.0469 29.6485 79.0039 26.543 72.7344C25.7813 71.2109 25.4492 70.7227 25.2344 70.8008C20.7813 72.5 16.4258 69.2383 14.5703 62.8125C13.2617 58.3203 12.8125 52.1094 13.2813 45.4102C13.75 39.043 15.0586 34.7656 17.3438 32.2266C19.5313 29.7852 22.6172 29.1016 25.3125 30.4688C25.7227 30.6836 26.1133 30.8594 26.1719 30.8594C26.25 30.8594 26.6992 30.2148 27.207 29.4336C29.4727 25.8398 33.7305 22.9297 38.7695 21.5039C39.6485 21.25 42.5781 19.9609 45.5078 18.5547C51.0352 15.8594 53.6914 14.8633 56.6211 14.375C58.8281 14.0039 62.0508 14.0039 64.043 14.3555ZM57.4219 17.7734C54.9414 18.1641 51.8555 19.3164 47.0899 21.6797C44.082 23.1836 41.543 24.2773 39.9219 24.8242C34.3945 26.6211 31.211 28.9648 29.5117 32.4609C28.5156 34.5117 28.3008 35.7031 28.3594 38.7695C28.418 41.7969 28.3008 42.207 27.3242 42.5586C26.875 42.7148 26.582 42.6953 26.0742 42.5C25 42.0508 24.9024 41.6797 24.8828 37.9102L24.8438 34.4922L24.336 34.043C22.5195 32.5 20.1953 33.4766 18.75 36.4062C17.5 38.9453 16.875 42.6172 16.6797 48.4375C16.4063 56.4453 17.6367 63.1055 19.9219 65.9961C20.8789 67.207 22.168 67.8711 23.2031 67.6758C24.6485 67.4219 24.7266 67.2656 24.8828 64.8047C25.1172 60.8203 25.4492 60.0586 26.9727 60.0586C27.6172 60.0586 27.8711 60.1758 28.2617 60.625C28.711 61.1719 28.7305 61.2695 28.5742 62.5781C28.3399 64.5508 28.3985 67.3047 28.6914 68.5547C28.8281 69.1406 29.2969 70.3711 29.7266 71.25C33.2617 78.4961 44.961 82.4023 63.086 82.4219C67.6367 82.4219 68.7891 82.2461 70 81.4258C71.7383 80.2344 72.3242 77.3047 71.2305 75.2148C70.586 73.9648 70.5664 73.2227 71.1524 72.5391C71.5235 72.1094 71.8164 72.0117 73.0469 71.875C74.8242 71.6992 76.0938 71.1328 77.2656 69.9805C79.2969 68.0273 79.7461 65.332 78.5352 62.4609C77.7539 60.5859 77.832 60.1367 79.2188 59.2188C82.1094 57.2852 83.6328 54.4336 83.3203 51.5039C83.1445 49.707 82.4219 48.3594 80.8399 46.8555C79.668 45.7227 79.4922 45.4688 79.4922 44.8438C79.4922 44.2578 79.668 43.9844 80.625 43.0273C82.1875 41.4648 82.6758 40.3711 82.7735 38.2812C82.8711 36.2109 82.4024 34.8438 81.1524 33.457C78.3789 30.3516 73.1641 30 65.8008 32.4023C63.9258 33.0078 63.2031 33.1641 62.8711 33.0273C61.6016 32.5391 61.2305 30.9766 62.1875 30.1367C62.8125 29.6094 66.9336 28.2617 69.375 27.793L71.1524 27.4609L71.0547 25.7617C70.8399 21.9727 68.4961 19.1797 64.6485 18.0859C64.0625 17.9297 63.3008 17.7539 62.9883 17.7148C61.7774 17.5586 58.6524 17.5977 57.4219 17.7734Z" fill="black"/>
</g>
</g>
</svg>
